<svg width="31" height="20" fill="none" xmlns="http://www.w3.org/2000/svg"><path d="M29 10.546h-2.308a1.107 1.107 0 00-1.104 1.1V14.2h-9.436v-2.552c0-.292-.116-.572-.323-.778a1.107 1.107 0 00-.78-.323h-2.313a1.099 1.099 0 00-1.096 1.1v7.251a1.099 1.099 0 001.096 1.1h2.309a1.107 1.107 0 001.104-1.1v-2.55h9.439v2.55a1.099 1.099 0 001.104 1.1H29a1.107 1.107 0 001.104-1.1v-7.25c0-.292-.116-.572-.323-.778a1.107 1.107 0 00-.78-.323z" fill="red"/><path d="M6.854 13.475l6.672-6.648 1.81 1.803a1.106 1.106 0 001.56 0l1.633-1.627a1.098 1.098 0 000-1.555L13.385.322a1.107 1.107 0 00-1.562 0l-1.634 1.625a1.099 1.099 0 000 1.557L12 5.307l-6.671 6.647-1.81-1.804a1.107 1.107 0 00-1.562 0L.323 11.777a1.099 1.099 0 000 1.556l5.145 5.126a1.106 1.106 0 001.561 0l1.633-1.627a1.098 1.098 0 000-1.555l-1.808-1.802z" fill="red"/></svg>