<svg width="100" height="112" fill="none" xmlns="http://www.w3.org/2000/svg"><path d="M50 0c3.452.002 6.795 1.251 9.461 3.535 2.667 2.284 4.492 5.461 5.164 8.99.672 3.53.15 7.193-1.477 10.366-1.628 3.173-4.26 5.66-7.448 7.036a14.347 14.347 0 01-10.038.514c-3.302-1.045-6.154-3.251-8.072-6.243a16.07 16.07 0 01-2.443-10.165c.338-3.58 1.855-6.929 4.295-9.474a14.858 14.858 0 014.843-3.378A14.354 14.354 0 0150 0zM29.067 71.715l-.019.04a.505.505 0 01-.03.05c-1.82 3.677-7.532 9.108-12.107 13.446-1.704 1.615-3.255 3.074-4.37 4.242-2.44 2.56-5.386 2.792-7.82 1.712-1.857-.833-3.337-2.377-4.136-4.314-1.038-2.545-.813-5.594 1.641-8.153l14.468-15.086 13.442-24.34c3.618-6.555 13.678-6.555 19.574-6.555h.144c2.677 0 6.659.04 10.434.806 4.012.817 7.76 2.466 9.577 5.755l13.443 24.35 14.467 15.087c2.454 2.56 2.677 5.62 1.64 8.153-.8 1.94-2.281 3.485-4.14 4.32-2.442 1.08-5.366.848-7.82-1.712-1.123-1.17-2.664-2.63-4.367-4.242-4.611-4.376-10.388-9.845-12.157-13.539l-.03-.056-.016-.04-3.675-6.655-.984 21.981L83.887 92.2c3.339.99 5.666 4.63 6.287 8.485a12.617 12.617 0 01-.046 4.355 9.101 9.101 0 01-1.777 3.96c-1.915 2.387-5.186 3.702-10.125 2.613L50 105.391l-28.23 6.222c-4.936 1.089-8.21-.226-10.122-2.613a9.07 9.07 0 01-1.777-3.96 12.487 12.487 0 01-.046-4.355c.621-3.867 2.948-7.506 6.287-8.485l17.663-5.24-.985-21.982-3.724 6.737z" fill="red"/></svg>