<svg width="27" height="27" fill="none" xmlns="http://www.w3.org/2000/svg"><path d="M3.448 0h19.967c1.896 0 3.448 1.398 3.448 3.434V23.32c0 2.036-1.552 3.434-3.448 3.434H3.448C1.55 26.754 0 25.356 0 23.32V3.434C0 1.398 1.551 0 3.448 0zm16.12 2.972a1.21 1.21 0 00-1.209 1.205V7.06a1.21 1.21 0 001.21 1.204h3.036a1.21 1.21 0 001.209-1.204V4.177a1.21 1.21 0 00-1.21-1.205h-3.036zm4.259 8.342h-2.365c.224.727.345 1.498.345 2.295 0 4.45-3.739 8.057-8.35 8.057s-8.35-3.607-8.35-8.057c0-.797.121-1.568.345-2.295H2.985v11.301c0 .585.48 1.064 1.068 1.064H22.76c.588 0 1.068-.479 1.068-1.064v-11.3zm-10.37-3.201c-2.98 0-5.395 2.33-5.395 5.206 0 2.875 2.415 5.206 5.395 5.206 2.98 0 5.395-2.33 5.395-5.206 0-2.876-2.416-5.206-5.395-5.206z" fill="#fff" fill-opacity=".5"/></svg>