<svg width="82" height="50" fill="none" xmlns="http://www.w3.org/2000/svg"><path d="M66.468 25.395a10.677 10.677 0 00-1.835-.952l-.127-.065-1.912-.988-.13-.068c-.847-.088-1.377-.986-2.323-1.204l-.102-.051-.938-.485-.132-.07a12.865 12.865 0 01-1.514-.782l-.141-.074-.53-.283.044.022h-.03a1.719 1.719 0 01-.198-.121l-4.278-2.216-.136-.07c-1.13-.522-2.394-1.241-3.436-1.78l-.127-.064-3.445-1.774-.136-.07c-.796-.233-1.51-.771-2.174-1.134l-.102-.053-2.258-1.17-.458.235-.195.102c-.746.488-1.54.899-2.369 1.226l-.104.054-8.189 4.25-.113.059a5.224 5.224 0 01-2.075 1.076l-.147.074-3.648 1.884-.144.07c-.847.465-1.757.825-2.564 1.329l-.127.065-6 3.116L17 26.843l.105.053c.799.298 1.53 1.012 2.394 1.233l.136.068 3.352 1.736.14.082.173.097c.517.493 1.412.674 2.098 1.07l.136.071 2.338 1.21c.048.022.093.048.138.073 1.005.765 2.259 1.133 3.256 1.683l.132.068 1.788.926c.104-.047.21-.089.319-.124.06-.009.12.002.172.03.023 0 .048.074.037.089-.011.014-.093.102-.141.102h-.187l5.015 2.606.184.093a.779.779 0 00.657.34l.145.077 1.11.566 5.042-2.612.127-.065c.778-.481 1.59-.903 2.432-1.26.048-.026.096-.051.146-.074l3.146-1.615c.048-.025.096-.05.147-.073a9.65 9.65 0 012.182-1.133l.147-.077 2.18-1.133.144-.074c.969-.637 2.223-.815 3.197-1.651l.127-.068.94-.487.113-.057c.714-.351 1.431-.53 2.033-1.054l.133-.068 3.905-2.017-.04-.02-.13-.059zm-47.155-2.04c-.025-.02-.073-.048-.07-.053.037-.066.077-.129.12-.19l.057.113-.107.13zm1.533-.373a1.17 1.17 0 01-.2-.19c0-.02.062-.09.096-.139l.211.201c-.042.057-.059.09-.101.128h-.006zm1.85 4.212c-.04 0-.077-.051-.116-.08l.155-.121c.031.054.076.096.074.136-.003.04-.076.065-.113.065zm.867-3.72a.906.906 0 01-.238.117c-.358 0-.42-.068-.316-.284.07-.145.166-.277.283-.388.152-.147.079 0 .084.06.01.097.034.192.07.283.04.07.14.198.117.218v-.005zm1.976-.172c-.02 0-.06-.04-.056-.046a.853.853 0 01.076-.11.583.583 0 01.068.054c-.017.042-.051.073-.08.107l-.008-.005zm1.917 3.569c-.03 0-.104-.093-.16-.147.08-.06.162-.116.248-.168 0 0 .076.071.147.14-.088.081-.147.158-.226.18l-.009-.005zm.283-3.014c-.074-.043-.161-.102-.18-.17-.02-.068.081-.116.126-.176l.226.236c-.065.048-.141.127-.16.116l-.012-.006zm5.257-6.402l.074.13a.458.458 0 01-.133.034c-.02 0-.06-.056-.053-.065a.61.61 0 01.124-.093l-.012-.006zm-3.617.59a.455.455 0 01.09.022l-.053.074a.417.417 0 01-.065-.057s.031-.034.04-.034l-.012-.006zm-.615.611l-.102-.156a.534.534 0 01.105-.05c.038.048.073.099.104.152l-.107.054zm.398 12.512s-.054-.025-.082-.04a.847.847 0 01.082-.116l.093.04a.936.936 0 01-.082.122l-.011-.006zm.565-.898c-.22-.042-.438-.07-.647-.13-.062-.017-.118-.12-.133-.193a.187.187 0 01.119-.141.881.881 0 01.785.096c.1.095.194.197.282.303l-.406.065zm.121-5.838l-.24-.156c.068-.042.144-.13.206-.122.12.029.236.071.345.128l-.31.15zm1.07-2.187c0-.04 0-.088.023-.133.048.074.093.15.144.232-.028.046-.048.08-.07.11a1.176 1.176 0 01-.083-.203l-.014-.006zm.528 5.949a.633.633 0 01-.147.125c-.033-.046-.107-.111-.093-.136.014-.026.102-.077.181-.125.042.08.088.133.073.153l-.014-.017zm-.313-4.357s-.054-.028-.082-.045l.381-.442.136.133a3.92 3.92 0 01-.421.371l-.014-.017zm1.912-3.864a3.914 3.914 0 01-.32-.283.357.357 0 01.142 0c.132.057.254.128.38.193 0 .03-.019.062-.03.093-.045.003-.127.037-.158.014l-.014-.017zm.211 7.592c-.045 0-.104-.07-.158-.11.06-.054.11-.128.184-.153.073-.026.113.056.228.116-.101.088-.166.153-.24.164l-.014-.017zm3.877-13.47l.054.083c0 .028-.02.06-.028.087-.026-.017-.071-.036-.071-.053a.457.457 0 01.06-.1l-.015-.017zm-1.47 7.824l.025.08-.071.05-.08-.093.125-.037zm-1.311 7.473a.15.15 0 01-.085-.048v-.068l.141.057c-.002.045-.025.079-.042.076l-.014-.017zm1.412.816s-.057.074-.08.068c-.157-.046-.31-.108-.465-.164.07-.083.133-.224.217-.235.22-.017.37.07.342.348l-.014-.017zm-.082-1.023c-.133-.167-.235-.249-.257-.345-.023-.097.102-.14.16-.207.074.054.204.102.213.164.008.063-.04.215-.102.405l-.014-.017zm.457-2.266a4.66 4.66 0 01-.189-.227s.037-.04.06-.059l.203.227-.074.06zm.633 6.603a.747.747 0 01-.048-.133.306.306 0 01.053-.017c.023.042.046.085.068.133a.158.158 0 01-.06.023l-.013-.006zm.099-2.504c.045-.1.098-.195.15-.283l.14.113-.231.24c-.009-.025-.05-.053-.045-.064l-.014-.006zm.234 6.06a.91.91 0 01-.147-.131.521.521 0 01.068-.09l.17.192c-.018.017-.063.06-.077.034l-.014-.006zm0-11.351a1.409 1.409 0 01-.251-.145c.062-.045.132-.133.186-.125.054.009.15.088.282.176-.09.06-.152.113-.189.1l-.028-.006zm.935 5.098c0 .032-.043.071-.068.105l-.153-.147.142-.085c.056.057.101.096.107.142l-.028-.015zm-.178-10.305c.022 0 .04.04.059.062l-.056.068-.082-.087c.053 0 .084-.032.107-.029l-.028-.014zm0 14.883c-.046 0-.1-.057-.147-.09.04-.046.068-.111.118-.128.051-.017.108.031.215.068-.056.09-.099.156-.15.156l-.036-.006zm.282-.481a1.476 1.476 0 01-.212-.284c-.014-.028.088-.13.096-.127.102.047.201.101.297.161l-.18.25zm.534-2.023a.588.588 0 01-.096-.09s.048-.066.053-.063c.04.023.079.047.116.074l-.073.079zm.697 1.651a.818.818 0 01-.118.125l-.043-.116.144-.1c.034.046.06.1.046.1l-.029-.009zm.373-4.03a1.298 1.298 0 01-.212-.06l.243-.105a.38.38 0 01.04.108c.028.037-.006.07-.043.07l-.028-.014zm0-9.674c0-.02-.048-.051-.04-.063a.463.463 0 01.094-.104s.045 0 .09.028l-.144.139zm4.605 3.75c.02-.034.074-.053.11-.082a.302.302 0 01.026.088c-.01.05-.027.1-.05.144-.03.066-.066.13-.1.193v-.164a.633.633 0 01.054-.165l-.04-.014zm-1.519-7.62c.048 0 .095.005.141.017-.025.04-.042.085-.059.085a.657.657 0 01-.144-.03c.02-.026.037-.069.062-.072zm-.361 4.1c.08.092.153.193.214.3.017.034-.045.096-.07.144a1.874 1.874 0 01-.283-.224c-.002-.017.071-.102.139-.22zm-1.477-6.78c-.023-.033-.08-.084-.068-.101a.334.334 0 01.139-.128c.033-.017.096.02.172.04l-.243.19zm.604 1.612c-.022-.036-.07-.085-.059-.113a.172.172 0 01.116-.09c.028 0 .07.05.144.104l-.2.1zm.754 9.736a.779.779 0 01-.138-.133c0-.017.04-.068.099-.155.033.067.061.137.084.21.009.022-.022.053-.045.078zm.223-.878a.636.636 0 01-.042-.13s.042-.031.065-.045a.541.541 0 01.06.121s-.04.032-.077.054h-.006zm.093-1.04a.902.902 0 01.215-.178c.034 0 .119.077.232.156-.096.06-.198.106-.305.139-.034.006-.088-.077-.136-.116h-.006zm.636 10.24c-.102.03-.206.052-.308.077v-.082c.115-.046.233-.086.353-.119.017 0 .048.034.085.065a.92.92 0 01-.125.06h-.005zm.734-1.772c0-.029-.045-.068-.034-.083a2.01 2.01 0 01.198-.215l.127.094-.291.204zm.282-2.567a.67.67 0 01-.17.148.831.831 0 01.035-.21c.046-.087.099-.17.158-.25 0 .026.04.054.037.077a.72.72 0 01-.051.235h-.009zm.167-3.065a.414.414 0 01-.04-.107s.046-.032.071-.046c.025-.014.02.054.031.08l-.062.073zm.234-11.679c.04-.025.08-.065.122-.068a.528.528 0 01.166.045l-.17.148-.118-.125zm.342 9.271c-.031 0-.07-.048-.104-.073.047-.034.087-.085.14-.1.054-.014.085.043.164.086a.912.912 0 01-.18.087h-.02zm.762.408a.531.531 0 01-.14-.11c.041-.034.084-.097.126-.097.098.014.193.042.283.083-.175.09-.226.136-.249.124h-.02zm.26-8.543a.39.39 0 01-.054-.102l.082-.04c.014.029.04.057.037.08-.003.022-.023.042-.045.062h-.02zm.339 11.121l-.248-.139c.132-.04.262-.088.395-.119.03 0 .073.043.113.068l-.26.19zm.55-11.52c.063.082.114.121.125.172.011.051-.045.074-.07.11a.565.565 0 01-.125-.124c.006-.023.05-.074.09-.159h-.02zm-.058 19.68a.748.748 0 010-.139c0-.017.076-.037.08-.03.027.042.052.086.073.132l-.153.037zm.164-18.189c-.017-.022-.054-.056-.048-.068a.584.584 0 01.093-.093l.051.09-.096.071zm.455 2.58c-.037-.019-.054-.07-.077-.107a.42.42 0 01.147 0c.037 0 .06.063.122.13a.681.681 0 01-.173-.022h-.02zm.655 14.793c-.02.043-.108.063-.164.09a.401.401 0 010-.127c.03-.088.069-.175.113-.257.048.178.09.246.07.294h-.02zm-.031-11.634a.332.332 0 01-.037-.124c.009-.06.023-.12.042-.179l.11.08-.115.223zm-.1-1.04c-.05-.022-.078-.087-.115-.132.045-.017.096-.051.138-.046.085.031.166.07.243.117-.155.025-.223.062-.265.062zm.625 6.754a.675.675 0 01.096-.162c.037.026.104.051.107.08a.652.652 0 01-.056.192c-.08-.065-.153-.107-.147-.124v.014zm.099 4.38c-.031-.077-.07-.123-.06-.157a.145.145 0 01.105-.082c.04 0 .087 0 .133.023l-.178.215zm1.663-8.343a.563.563 0 01.113-.068l.065.068a.602.602 0 01-.122.06s-.036-.054-.056-.074v.014zm.282 6.096a.468.468 0 01-.16-.068c.036-.031.067-.076.112-.088.045-.011.088.02.156.04-.037.04-.068.102-.097.102l-.01.014zm.565-3.037c-.028-.192.068-.283.2-.24l.297.045-.378.34c-.023-.063-.11-.105-.116-.159l-.003.014zm.308 1.587a.96.96 0 01-.113-.204s.073-.043.11-.063c.037.066.076.133.124.224a.671.671 0 01-.118.028l-.003.015zm.358 2.71a2.618 2.618 0 01-.17-.237s.08-.085.097-.077c.093.048.183.103.268.164l-.195.15zm.842-13.146a1.557 1.557 0 01-.161-.119c.034-.023.085-.074.099-.065a1 1 0 01.166.122c-.062.03-.104.068-.104.062zm.773 7.778c-.076-.053-.146-.116-.22-.175l.085-.068.215.207c-.04.014-.08.045-.09.037h.01zm.81 3.626a.928.928 0 01-.25-.104c-.046-.023-.074-.071-.11-.108l.217-.136c.086.076.168.156.245.24 0 0-.09.114-.112.108h.01zm.913-6.948a.566.566 0 01-.18-.11c.042-.04.078-.108.13-.117.05-.008.112.04.208.08-.085.073-.136.155-.17.147h.012zm2.064 6.631s-.042-.065-.04-.068l.125-.062.045.088a.58.58 0 01-.141.042h.011zm.282-5.223c-.022 0-.059-.023-.09-.034a.452.452 0 01.13-.105c.037 0 .093 0 .198.037-.076.04-.154.073-.235.102h-.003zm.848 3.028a2.206 2.206 0 01-.393-.369l.09-.138c.145.06.287.13.424.207.06.053.11.115.152.184-.104.042-.245.141-.285.116h.012zm.55-1.448c-.04 0-.082-.034-.124-.05a.592.592 0 01.096-.145c.017 0 .082.023.127.037l.096.113c-.068.02-.137.035-.206.045h.011zm1.282 1.841a.202.202 0 01-.028-.085.205.205 0 01.045-.079l.065.077-.082.087zm2.36-.985l-.087-.074.076-.057c.023.02.063.04.065.063.003.022-.036.045-.053.068zm-7.09 6.232l-.178.093.178-.093zM43.978 11.589l.178.093-.178-.093zM32.723 35.58l.25.128-.25-.128zm36.143-11.12l-.116-.06c-.66-.088-1.02-.448-1.562-.81l-.144-.074-1.411-.73-.139-.072c-.99-.566-2.245-.739-3.165-1.637l-.178-.09c-.991-.51-2.002-1.017-2.937-1.524l-.146-.077-2.22-1.133-.152-.077c-.94-.34-1.83-.803-2.649-1.376a2.337 2.337 0 01-.147-.074l-3.357-1.753-.141-.074c-2.096-1.048-4.157-2.133-6.235-3.218-.025.02-.042.037-.062.04-.073 0-.17-.088-.226-.193l-1.64-.85-.15-.079-1.579-.816-.706.366-.101.05c-.897.53-1.823 1.01-2.773 1.437l-.099.05-2.259 1.168-.11.056c-1.497.44-2.395 1.34-3.578 1.856l-.124.062-.251.13-.133.069c-.09.067-.18.133-.282.195 0 .028.02.057 0 .076a1.84 1.84 0 01-.07.066c0-.032-.023-.066-.015-.091a7.053 7.053 0 01-1.72.827l-.11.045-5.56 2.893-.197.099c-.935.501-2.008.85-2.86 1.484l-.11.054-3.076 1.595-.115.06c-.684.365-1.579.724-2.31 1.195l-.19.099c-.691.15-1.228.688-1.976 1.022l-.116.06-1.482.767.807.42.108.054c1.61.883 3.222 1.6 4.857 2.515l.118.062 1.211.626.113.06a47.35 47.35 0 013.253 1.682l.125.066L24 32.623l.192.1c.709.217 1.245.756 1.929.996l.192.1.565.3.132.068c.565.566 1.463.566 1.977 1.025l.133.068.305.159.113.054c.722.504 1.617.682 2.259 1.178l.143.074 2.11 1.09.099.054c.943.264 1.48.983 2.366 1.224l.127.065 3.843 1.983 1.028-.533.118-.062c.45-.085.808-.445 1.155-.598l.167-.087 3.479-1.8a.402.402 0 01-.113-.047c-.204-.116-.187-.23.036-.335.223-.104.399-.283.596.026 0 .023.028.045.04.068l-.322.164.37-.192.113-.057c.483-.462 1.378-.462 1.855-.96l.121-.063 3.126-1.62.19-.096c.745-.238 1.462-.78 2.111-1.094l.195-.102.494-.255a5.85 5.85 0 01.235-.413c.045.065.15.155.13.195a.327.327 0 01-.032.054l1.497-.773.195-.1c1.115-.26 1.654-.98 2.541-1.317l.192-.099 1.13-.586.127-.065c.711-.53 1.606-.709 2.298-1.19l.116-.06 7.127-3.682-1.934-1.023zm-9.25-4.272c.086.048.169.102.248.161-.062.045-.107.085-.113.08-.093-.069-.184-.145-.282-.219.056-.008.11-.04.146-.022zm-6.919-3.29l.156.12c-.034.017-.088.06-.102.05a1.132 1.132 0 01-.15-.132l.096-.037zm-1.445-.968l.223.17c-.082.07-.139.122-.198.17a.636.636 0 01-.121-.19c-.009-.045.062-.099.096-.15zm-17.036-2.478c.029 0 .057.025.088.042-.017.023-.034.065-.054.065-.02 0-.056-.025-.084-.04.017-.025.033-.067.05-.067zm-8.71 4.637a.59.59 0 01.138.056l-.102.108a.358.358 0 01-.079-.096c-.009-.029.031-.071.042-.068zm-7.396 3.608c.02 0 .082.066.161.134a1.66 1.66 0 01-.282.15.384.384 0 01-.105-.13.76.76 0 01.226-.154zm-3.62 1.663c.026 0 .06.054.105.097a.447.447 0 01-.15.065c-.023 0-.076-.071-.068-.085a.178.178 0 01.113-.077zm-.822.284h.02c.051.104.093.152.082.184-.04.087-.088.17-.144.249-.037-.028-.107-.062-.101-.08.04-.119.088-.235.143-.348v-.005zm1.296 3.617a3.036 3.036 0 01-.299-.159c.04-.042.108-.13.122-.124a3 3 0 01.327.195c-.087.048-.15.096-.15.088zM27.9 34.426l-.15-.094c.088-.056.172-.119.266-.167.017 0 .073.046.11.068l-.226.193zm9.264 5.01l-.245-.127c.104-.014.211-.014.319-.022l.017.05-.09.1zm1.412-.226a.567.567 0 01-.102.153 1.047 1.047 0 01-.079-.215c0-.026.057-.06.13-.13.02.093.054.147.043.192h.008zm.63 1.105a.63.63 0 01-.082-.09c.025-.018.06-.049.073-.043a.46.46 0 01.102.073.733.733 0 01-.102.06h.009zm1.765-.178l-.102-.102a.99.99 0 01.192-.136c.017 0 .082.082.124.127l-.214.11zm21.81-12.062l-.139.07c-.471.482-1.366.482-1.824.947l-.11.056-.951.493-.13.068c-1.04.357-1.757 1.077-2.875 1.488l-.141.073-2.561 1.326-.133.068c-.717.456-1.473.847-2.259 1.17l-.133.068-2.959 1.52-.121.063c-.808.513-1.694.873-2.519 1.306l-.104.054-2.321 1.201a.119.119 0 01.048.06c0 .036-.037.079-.065.135l-.127-.121-.901.467-.158.082c-.565.385-1.29.385-1.663.85l-.082.043-.065.033-.124-.065-.283-.15-.127-.065c-.55-.453-1.268-.632-1.892-.974l-.099-.057-.974-.487-.124-.066c-.695-.475-1.412-.654-2.056-1.065l-.15-.076-1.694-.881s-.194.045-.209.02a1.736 1.736 0 01-.124-.201l.082.042-.093-.05c-.048-.026-.099-.049-.147-.077-.782-.354-1.496-.895-2.216-1.162l-.147-.065c-.243-.11-.486-.207-.726-.306l-.178-.076a1.408 1.408 0 01-1.13-.663l-.143-.08-2.657-1.365-.142-.073c-.601-.689-1.496-.329-2.033-1.029l-.178-.11-.138-.08c-1.26-.648-2.465-1.274-3.575-1.85l-.127-.062c-.821-.073-1.18-1.152-2.047-1.062l-.096-.054-3.589-1.855-.082-.043c-.203-.283.334.063.317-.232l.101-.05 6.596-3.414.13-.068c.537-.499 1.432-.666 2.036-1.065l.141-.074 4.34-2.246.133-.068c.336-.284 1.053-.284 1.44-.745l.136-.071 5.34-2.745.126-.065a1.09 1.09 0 00.497-.258l.122-.062 2.456-1.272.127-.068c.847-.184 1.381-1.082 2.26-1.164l.146-.077.785-.433.124.065 2.324 1.204.102.05c.847.508 1.553 1.046 2.38 1.233l.136.07.384.202-.147-.076a.924.924 0 01-.116-.12c-.014-.016.116-.17.136-.16.127.057.25.125.367.203-.08.074-.15.144-.19.178l2.971 1.539.127.065c1.24.609 2.316 1.507 3.572 1.85l.139.07 4.478 2.317.144.077c.203.064.399.148.584.252a3.017 3.017 0 01-.166-.252s.13-.096.144-.085c.078.05.143.12.189.201.017.04-.017.1-.057.196.407.27.834.507 1.277.71l.14.071.52.284.102.053c.746.45 1.821.81 2.615 1.352l.133.07 1.694.884.141.071c.627.232 1.166.77 1.872.972l.178.09.985.51-5 2.598z" fill="#fff"/><path d="M32.104 25.644a5.857 5.857 0 01-.341 2.034 3.72 3.72 0 01-.935 1.479 1.807 1.807 0 01-1.99.402 1.807 1.807 0 01-.59-.402 3.684 3.684 0 01-.936-1.479 5.855 5.855 0 01-.344-2.034 5.412 5.412 0 01.703-2.872c.472-.773 1.09-1.159 1.86-1.159.772 0 1.39.386 1.862 1.16.499.871.745 1.866.711 2.871zm-4.382 1.913a6.92 6.92 0 01-.251-1.913 6.751 6.751 0 01.257-1.914c.132-.504.368-.973.691-1.38v-.045a3.369 3.369 0 00-.895 1.382 5.49 5.49 0 00-.336 1.957 5.559 5.559 0 00.328 1.947c.18.527.485 1.002.89 1.385v-.049a3.688 3.688 0 01-.684-1.37zm2.632-1.958a14.33 14.33 0 00-.175-2.654c-.116-.567-.33-.85-.641-.85s-.523.283-.641.85a14.291 14.291 0 00-.178 2.651c-.026.907.046 1.814.214 2.706.141.606.342.912.605.912.262 0 .46-.306.604-.912a12.96 12.96 0 00.212-2.703zm.482 1.816a11.614 11.614 0 000-3.541 7.556 7.556 0 00-.364-1.476l-.022.023c.3 2.14.3 4.31 0 6.45l.022.023c.17-.48.293-.975.364-1.48zm4.094-3.779v4.042c0 .85.145 1.264.433 1.264.22 0 .46-.182.723-.538.18-.278.327-.577.434-.89.171-.47.314-.95.427-1.436h.133v3.365h-4.594v-.501h.474c.127 0 .231-.1.31-.3.093-.313.132-.638.116-.964v-4.042a2.967 2.967 0 00-.124-.906c-.085-.253-.184-.38-.302-.38h-.474v-.501h3.535v.501h-.658c-.119 0-.22.127-.305.38-.09.293-.134.599-.127.906zm-1.019 5.306V22.35h-.257v6.592h.257zm5.964-5.306v4.042c-.016.324.025.648.119.958.079.204.183.306.31.306h.48v.501h-3.363v-.501h.483c.127 0 .232-.102.31-.306.095-.31.135-.634.12-.958v-4.042a2.875 2.875 0 00-.128-.906c-.085-.253-.183-.38-.302-.38h-.483v-.501h3.363v.501h-.48c-.118 0-.217.127-.302.38-.09.293-.133.599-.127.906zm-1.02 5.306V22.35H38.6v6.592h.257zm9.455-6.592h-.661a.352.352 0 00-.314.23 1.624 1.624 0 00-.118.716v4.382c-.016.324.024.648.118.958.08.204.184.306.314.306h.66v.501h-3.538v-.501h.475c.13 0 .231-.102.31-.306.094-.31.135-.634.119-.958v-4.767l-1.209 5.538h-.206l-1.525-3.805v1.564c-.004.426.035.852.119 1.27.055.297.16.585.308.849.254.405.525.609.819.609v.501h-2.756v-.501c.282 0 .564-.204.819-.609.15-.264.255-.55.31-.85.084-.418.124-.843.119-1.269v-1.23a4.68 4.68 0 00-.19-1.385 2.436 2.436 0 00-.477-.931.848.848 0 00-.624-.315v-.498h2.559l1.211 3.048.663-3.048h2.694v.501zm-3.912 5.127v-.736l-1.736-4.363h-.395l2.033 5.1h.099zm1.542-5.127v6.592h.257V22.35h-.257zm2.787-.501h3.987c.926 0 1.39.704 1.392 2.113 0 1.443-.411 2.163-1.234 2.161H51.39c-.074 0-.13.063-.164.19a2.38 2.38 0 00-.053.606v.76c-.015.323.024.646.115.957.08.204.181.306.31.306h.484v.501h-3.355v-.501h.477c.13 0 .235-.102.314-.306.094-.31.134-.634.118-.958v-4.042a2.875 2.875 0 00-.127-.906c-.084-.253-.186-.38-.305-.38h-.477v-.501zm1.435 7.081v-6.58h-.26v6.592l.26-.012zm1.228-3.33h.4c.21 0 .388-.228.529-.678a3.843 3.843 0 000-1.895c-.141-.45-.32-.677-.528-.677h-.401c-.054 0-.102.06-.138.176a1.315 1.315 0 00-.06.419v2.07c-.002.139.018.277.06.409.028.116.076.175.138.175zm1.508-.672c.15-.627.15-1.28 0-1.907a1.446 1.446 0 00-.266-.623l-.02.034a7.67 7.67 0 01.125 1.544 7.71 7.71 0 01-.124 1.54l.02.035c.136-.184.227-.397.265-.623z" fill="#1D1D1B" stroke="#000" stroke-width=".43" stroke-miterlimit="10"/><path d="M58.167 27.132a.093.093 0 01-.054-.017l-.963-.68-.96.68a.088.088 0 01-.104 0 .09.09 0 01-.034-.1l.347-1.133-.15-.11c-.423-.25-.782-.428-.782-.61.181-.359.718 0 1.034-.166h.186l.381-1.116a.093.093 0 01.085-.063.088.088 0 01.085.063l.364 1.116 1.178.02a.09.09 0 01.082.062.091.091 0 01-.029.099l-.949.708.348 1.133a.09.09 0 01-.065.114zm-33.339 0a.093.093 0 01-.054-.017l-.963-.68-.963.68a.088.088 0 01-.104 0 .09.09 0 01-.034-.1l.347-1.133-.15-.105c-.423-.249-.782-.427-.782-.608.181-.36.718 0 1.034-.168h.186l.373-1.121a.094.094 0 01.085-.063.088.088 0 01.084.063l.396 1.116 1.177.02a.09.09 0 01.054.161l-.949.708.347 1.133a.091.091 0 01-.034.1.085.085 0 01-.05.014z" fill="#1D1D1B"/><path d="M61.027 44.267l.102-.051.4-.207-.183-.054-.18-.054c-.616-.354-1.333-.354-1.864-.632l-.184-.065a16.992 16.992 0 01-1.584-.708 19.101 19.101 0 01.584-1.328c.461-.677.283-1.575.941-2.09l.068-.19c.068-.19.127-.378.178-.567-.316.164-.633.326-.955.481l-.192.094c-.687.375-1.404.692-2.143.949l-.2.082c-.661.264-1.328.51-2.002.74l-.212.07a4.44 4.44 0 01-1.694.524l-.212.057-.426.116-.212.056c-.72.083-1.257.442-1.932.454l-.214.045-.218.043-.217.042c-1.005.037-2.081.567-3.078.476l-.22.025c-.695.078-1.39.137-2.087.179l-.209.014c-.788.062-1.324.062-2.095.065h-1.059c-.565-.147-1.282.077-1.92 0-.017.077-.068.17-.113.312-.133-.167-.237-.25-.257-.346 0-.017 0-.034.017-.054h-.02l-.206-.014a39.122 39.122 0 01-1.669-.164l-.211-.026a14.25 14.25 0 01-1.949-.32l-.087.066c-.023-.032-.062-.069-.082-.1a7.671 7.671 0 00-.847-.116l-.215-.042c-.209-.04-.418-.085-.627-.13l-.217-.049c-1.067.105-2.143-.614-3.194-.85l-.211-.068a20.047 20.047 0 01-.627-.204l-.206-.07a41.93 41.93 0 01-2.824-1.088l-.11-.048a37.578 37.578 0 01-1.09-.493l-.198-.096c-.308-.213-.666-.213-.788-.389l-.195-.099-.194-.102.042.15c0 .051.028.102.045.15.065.615.605.975.644 1.556l.082.19c.186.536.43 1.05.726 1.535l.084.193a.197.197 0 01.215.245.198.198 0 01-.068.106 7.185 7.185 0 01-1.784.784l-.175.074a9.207 9.207 0 01-.69.25l-.177.065-.184.062c-.215.022-.392.022-.378.124l-.198.063-.404.119.181.093.183.094c.76.249 1.477.79 2.197 1.048l.184.082.565.238.192.08c1.042.419 1.937.778 2.95 1.098l.2.066c.264.087.529.17.791.249l.207.062c1.013.383 2.259.383 3.28.85l.215.042c.486.102.972.197 1.457.284l.212.036c1.943.077 4.092.618 6.032.627h.22a57.07 57.07 0 003.654.008h.209c1.129.159 2.038-.201 3.106-.207l.206-.02c.48-.048.957-.104 1.431-.167l.21-.028c1.033-.317 1.928-.317 2.922-.501l.206-.046a40.78 40.78 0 002.259-.54l.206-.057c.808-.071 1.344-.431 2.075-.624l.206-.07a45.256 45.256 0 002.26-.828l.203-.082c.72-.088 1.26-.804 2.033-.884l.104-.048.506-.24.101-.049c.119-.13.478-.13.596-.308zm-36.332-3.142c-.042 0-.08-.05-.116-.08l.153-.121c.034.054.076.096.073.136-.003.04-.073.068-.11.065zm6.475 3.966l-.082-.04a.877.877 0 01.084-.116l.094.04a.944.944 0 01-.096.124v-.008zm.564-.898c-.22-.043-.44-.07-.65-.13-.061-.017-.118-.12-.129-.193-.011-.074.068-.133.119-.142a.873.873 0 01.785.097c.1.095.194.196.282.303l-.407.065zm4.628-.853a.158.158 0 01-.084-.048c0-.014 0-.045.017-.068l.14.057c-.03.022-.056.06-.073.06zm1.412.816s-.056.074-.082.068c-.158-.045-.31-.108-.466-.164.074-.082.133-.224.218-.235.209-.04.361.048.333.325l-.003.006zm1.005 3.303a.797.797 0 01-.045-.13.158.158 0 01.051-.02c.026.042.045.085.07.133-.028 0-.07.014-.073.011l-.003.006zm.158-2.445c-.02-.02-.064-.048-.059-.06.045-.098.1-.194.15-.282l.144.113-.234.23zm1.045-.37c.029.042.077.081.082.127.006.045-.045.07-.07.105l-.153-.148.141-.085zm.187 4.223a1.672 1.672 0 01-.215-.283c0-.029.088-.13.096-.128.103.048.203.102.3.162l-.181.249zm.53-2.023a.567.567 0 01-.093-.09s.048-.066.051-.063c.04.022.08.046.116.074l-.074.08zm.7 1.652a.846.846 0 01-.12.124c0-.03-.02-.06-.04-.116l.141-.099c.011.034.034.065.023.085l-.003.006zm.39-4.023a1.237 1.237 0 01-.214-.06l.245-.104c.02.033.032.07.037.108a1.006 1.006 0 00-.068.056zm3.533 3.434c-.102.028-.206.05-.308.076v-.082a3.12 3.12 0 01.353-.12c.014 0 .045.035.085.066a.847.847 0 01-.144.045l.014.015zm.734-1.774c0-.028-.042-.068-.031-.082a2.09 2.09 0 01.195-.215c.044.029.086.06.127.093l-.291.204zm.3-2.566a.738.738 0 01-.173.147.838.838 0 01.037-.21c.046-.086.099-.17.158-.249 0 .026.037.054.034.077a.652.652 0 01-.07.22l.013.015zm4.34-1.077a.606.606 0 01.098-.161c.037.026.102.051.105.08a.566.566 0 01-.057.192c-.093-.07-.166-.11-.16-.11h.013zm.101 4.38c-.034-.077-.07-.122-.062-.156a.15.15 0 01.107-.082c.037 0 .085.014.13.023l-.175.215zm1.954-2.246a.454.454 0 01-.158-.069c.037-.03.068-.076.11-.087.042-.012.087.02.155.04-.056.039-.093.101-.121.101l.014.014zm.565-3.037c-.026-.193.067-.283.2-.24l.3.044-.379.34c-.07-.062-.135-.09-.144-.158l.023.014zm.307 1.586a1.087 1.087 0 01-.11-.204s.071-.042.11-.062l.125.224a.763.763 0 01-.147.028l.023.014zm.36 2.711a2.629 2.629 0 01-.17-.238s.082-.085.096-.076c.093.048.183.103.268.164l-.195.15zm1.603-5.354a3.446 3.446 0 01-.22-.175l.084-.068.212.206c-.036.015-.09.032-.099.015l.023.022zm.565 3.521a.44.44 0 01-.11-.107l.214-.136c.087.075.169.155.246.24 0 0-.076.114-.102.108a.874.874 0 01-.277-.119l.029.014zm.491 2.051c-.07-.045-.141-.088-.209-.139 0 0 .017-.048.09-.238.071.153.11.227.139.306-.02.003-.04.032-.048.057l.028.014zm2.736-2.266s-.045-.065-.042-.065a1.08 1.08 0 01.127-.065l.042.087a.56.56 0 01-.155.032l.028.011z" fill="#fff"/><path d="M28.018 42.833l-.65 2.031a1.085 1.085 0 01-.519-.167l.503-1.564-.565-.184-.502 1.561a1.034 1.034 0 01-.52-.167l.65-2.028.522.167 1.081.351zm.373 2.371c-.505-.139-.683-.481-.534-1.02a.876.876 0 01.362-.546.764.764 0 01.618-.057c.503.14.68.48.534 1.02a.892.892 0 01-.364.544.756.756 0 01-.616.06zm.13-.47a.204.204 0 00.2-.031.676.676 0 00.145-.527.25.25 0 00-.262-.137.247.247 0 00-.097.038.686.686 0 00-.144.53.204.204 0 00.155.127h.003zm2.231.051c.116.327.193.666.228 1.011a1.09 1.09 0 01-.547-.127 2.756 2.756 0 00-.122-.68c-.07.043-.145.077-.223.102l-.107.47a.962.962 0 01-.523-.122l.36-1.532c.18-.007.361.035.521.122l-.13.566c.212-.113.398-.27.546-.459.196-.005.39.04.564.133a2.995 2.995 0 01-.567.516zm1.07 1.226c-.514-.098-.717-.424-.61-.977a.87.87 0 01.319-.566.75.75 0 01.613-.105c.512.1.714.426.607.977a.868.868 0 01-.322.567.752.752 0 01-.607.105zm.093-.475a.214.214 0 00.198-.049.488.488 0 00.107-.255.515.515 0 000-.283.212.212 0 00-.167-.119.208.208 0 00-.2.048.5.5 0 00-.107.261.469.469 0 000 .283.219.219 0 00.16.114h.01zm1.994-.867a.735.735 0 01.528.283c.114.192.148.42.096.637a1.057 1.057 0 01-.263.604.564.564 0 01-.508.147.564.564 0 01-.33-.156l-.094.618a1.03 1.03 0 01-.528-.082l.302-1.96c.25-.11.528-.141.797-.091zm-.108.479a.409.409 0 00-.214.014l-.088.566a.32.32 0 00.203.116c.049.01.1.004.145-.017a.212.212 0 00.096-.102.85.85 0 00.056-.204.446.446 0 00-.02-.263.223.223 0 00-.178-.11zm2.4 1.462a.907.907 0 01-.482-.057l.079-.683a.924.924 0 01.028-.164 4.53 4.53 0 00-.616.79.999.999 0 01-.502-.06l.178-1.569a.866.866 0 01.242 0c.081.008.16.028.235.06l-.068.68c0 .067-.017.124-.025.164.166-.293.373-.56.615-.793a.948.948 0 01.254 0 .863.863 0 01.249.06l-.187 1.571zm2.033.2a.904.904 0 01-.412-.119.629.629 0 01-.245-.283.975.975 0 01-.065-.447c0-.23.087-.45.242-.618a.706.706 0 01.565-.204.66.66 0 01.282.085c.08.045.147.111.19.193a.51.51 0 01-.283.328.212.212 0 00-.18-.11.26.26 0 00-.215.07.437.437 0 00-.079.261.349.349 0 00.068.283.364.364 0 00.262.1.693.693 0 00.283-.037.71.71 0 01.087.428c-.159.062-.33.086-.5.07zm1.344.054a2.131 2.131 0 01-.564-.093l.036-1.49c.202-.074.416-.108.63-.1a.902.902 0 01.506.14.397.397 0 01.169.35.374.374 0 01-.056.205.305.305 0 01-.153.127c.08.02.15.065.2.13a.372.372 0 01.068.23.434.434 0 01-.101.283.584.584 0 01-.283.173 1.47 1.47 0 01-.452.045zm.077-.43c.141 0 .212-.043.214-.136.003-.094-.065-.136-.2-.14h-.138v.264c.04.007.082.01.124.012zm-.122-.598h.139c.124 0 .189-.037.189-.122 0-.085-.057-.125-.18-.127a.538.538 0 00-.142 0l-.006.249zm1.895 1.042c-.522 0-.788-.283-.796-.83a.883.883 0 01.195-.626.76.76 0 01.564-.226c.523 0 .785.269.794.83a.853.853 0 01-.198.623.742.742 0 01-.559.23zm0-.487a.203.203 0 00.184-.085.49.49 0 00.053-.283.513.513 0 00-.062-.283.21.21 0 00-.186-.083.214.214 0 00-.187.088.54.54 0 00-.053.284.495.495 0 00.062.283.213.213 0 00.183.08h.006zm2.575.349a.943.943 0 01-.485.025l-.034-.688a1.037 1.037 0 010-.167c-.191.275-.352.57-.48.88-.164.051-.338.06-.506.026l-.079-1.58a.948.948 0 01.483-.023l.034.69c.003.056.003.11 0 .165.119-.314.28-.61.48-.88a.99.99 0 01.505-.026l.082 1.578zm-.734-2.097a.537.537 0 01.305-.017c0 .057-.01.114-.028.167a.342.342 0 01-.082.125.489.489 0 01-.127.082.531.531 0 01-.172.034.442.442 0 01-.308-.085.414.414 0 01-.136-.283c.05-.017.1-.027.153-.028a.521.521 0 01.152.014.11.11 0 00.124.088.113.113 0 00.12-.102v.005zm2.962 1.935a.865.865 0 01-.726-.201 1.51 1.51 0 01-.178-1.632.849.849 0 01.656-.365.87.87 0 01.728.204 1.501 1.501 0 01.178 1.629.86.86 0 01-.658.365zm-.056-.501a.33.33 0 00.282-.176 1.204 1.204 0 00-.105-.918.322.322 0 00-.31-.107.355.355 0 00-.212.087.397.397 0 00-.104.21 1.279 1.279 0 000 .349.893.893 0 00.144.447.328.328 0 00.305.108zm2.549-1.519l.246 1.581a.97.97 0 01-.54.076l-.174-1.133-.266.043.023.498c.023.194-.009.39-.09.567a.486.486 0 01-.365.227.7.7 0 01-.344-.037.668.668 0 01.048-.437.307.307 0 00.113 0 .115.115 0 00.09-.067.448.448 0 00.023-.185l-.043-.931.528-.083.751-.119zm2.073 1.224a.915.915 0 01-.474.094l-.136-.675c0-.068-.02-.121-.023-.164-.147.3-.263.616-.344.94a1.011 1.011 0 01-.497.1l-.308-1.55a.937.937 0 01.472-.096l.135.68c.013.054.02.109.026.164a3.64 3.64 0 01.344-.943.944.944 0 01.243-.08.886.886 0 01.254-.02l.308 1.55zm.311-.062a12.891 12.891 0 01-.246-1.57.904.904 0 01.469-.113c.214.22.408.46.578.717.027-.306.082-.609.167-.904a.944.944 0 01.463-.113c.2.49.371.993.511 1.504a.845.845 0 01-.451.11 8.854 8.854 0 00-.249-.787 3.802 3.802 0 00-.13.66.563.563 0 01-.364.088 3.73 3.73 0 00-.427-.519c.034.275.081.547.142.816a.875.875 0 01-.463.11zm3.219-2.524l.449 1.535a.964.964 0 01-.512.153l-.316-1.074-.4.12.313 1.07a.963.963 0 01-.511.153l-.452-1.538.514-.15.915-.27z" fill="#1D1D1B"/><path d="M20.914 32.366l-.048.015a.076.076 0 01.048 0v-.015zm-7.624 6.822l.22-.094.486-.187c-.19.051-1.09-1.637-1.957-3.815-.867-2.179-1.344-4.034-1.146-4.128l-.534.204-.223.088c-.22.085.251 1.955 1.13 4.139.878 2.184 1.826 3.866 2.021 3.792h.003zm-2.897-7.629c-.025-.017-.073-.048-.07-.054.036-.065.081-.127.12-.19l.057.117-.107.127zm-8.417 6.515A90.08 90.08 0 00.03 39.103c-.062.036-.028.311.102.685l.09-.048c.028-.043.082-.09.096-.085a.12.12 0 01.034 0c.63-.343 1.265-.683 1.903-1.011a13.32 13.32 0 01-.28-.57zm18.96-5.433l-.24-.156a1.73 1.73 0 01.159-.11 88.303 88.303 0 00-8.068 2.612l.34.832a87.424 87.424 0 019.001-2.85l-.92-.458-.271.13zM13.77 35.41c-.04 0-.076-.051-.113-.08l.153-.121c.03.053.076.096.073.136-.003.04-.076.065-.113.065zm-6.508 1.725c-.283-.592-.537-1.179-.785-1.748a72.29 72.29 0 01-1.548-3.816.441.441 0 00-.593-.255l-.596.264a.849.849 0 00-.451 1.06 55.999 55.999 0 002.278 5.282c2.581 5.264 5.148 9.272 5.902 8.929.27-.125.542-.247.813-.365a68.764 68.764 0 01-4.202-7.618c-.27-.566-.545-1.141-.818-1.739v.006zM4.7 32.293c-.033-.026-.104-.063-.101-.08.045-.127.097-.252.155-.373.057.119.105.172.09.204-.04.087-.088.17-.144.249zm.913 5.008c-.054-.02-.085-.082-.125-.128a.677.677 0 01.181-.014c.093.04.18.09.263.148a1.237 1.237 0 01-.32-.017v.011zm.415-1.824a2.531 2.531 0 01-.3-.159c.043-.042.108-.13.122-.125.112.06.221.125.327.196-.076.037-.127.085-.15.076v.012zM7.1 40.576c0-.023-.043-.046-.037-.057a.593.593 0 01.068-.116c.017 0 .05.037.048.045-.024.043-.05.085-.08.125v.003zm-4.058-6.374a36.706 36.706 0 01-.827-2.192c-.204.099-.943.51-1.147.608-.282.145-.127 1.06.353 2.4l1.621-.816zm1.451-3.861a28.76 28.76 0 01-.915-3.198l-1.022.453c-.505.23-.378 1.547.206 3.479l1.731-.734zM2.8 29.553l.107.221-.115.043c-.037-.068-.077-.136-.108-.21a.802.802 0 01.119-.056l-.003.003zm3.993-3.226a13.457 13.457 0 01-.489-2.852 3.525 3.525 0 01-.26-.199.088.088 0 010-.087c0-.023.057-.029.097-.049l.177.054c.026-.439.139-.716.35-.796-.734.283-1.465.567-2.193.873-.619.255-.565 1.73 0 3.948l2.318-.892zm-1.872.102l.07.094c-.053.028-.104.059-.158.082a.184.184 0 01-.05-.063c.042-.04.09-.076.138-.113zm63.778 18.588a1.057 1.057 0 01-.164-.133l.159-.048c.067.014.124.02.169.031 1.22-2.107 2.654-4.943 4.106-8.116a71.455 71.455 0 002.987-7.537 1.154 1.154 0 00-.675-1.417l-.918-.362a.403.403 0 00-.536.258 55.818 55.818 0 01-.844 2.588c-.065.87-.782 1.59-.955 2.573l-.04.107a104.75 104.75 0 01-1.174 2.878 153.36 153.36 0 01-1.855 4.181c-.023.048-.043.097-.065.142-.458.697-.635 1.595-1.099 2.297l-.062.128c-1.694 3.419-3.055 5.586-3.566 5.382a107.9 107.9 0 011.624.654c.485.204 1.581-1.192 2.973-3.577l-.065-.029zm2.96-10.002a.148.148 0 01.098 0c.02 0 .028.042.051.08h-.161c.003-.032 0-.08.011-.08zm-.868 2.606l.085.045a.394.394 0 01-.065.054.068.068 0 01-.042-.02.365.365 0 01.022-.079zm-.847 1.499c.014 0 .043.036.09.085a1.36 1.36 0 01-.203.036c-.025 0-.05-.04-.079-.06.06-.023.12-.044.181-.061h.011zm-2.165 6.515c-.088-.051-.17-.08-.167-.1.003-.02.037-.138.079-.152a3.7 3.7 0 01.469-.091.19.19 0 01.04.08 11.7 11.7 0 00-.433.254l.012.009zM77.72 32.64a.852.852 0 00-.452-1.06l-.596-.263a.438.438 0 00-.593.255c-.18.487-.378.995-.584 1.51 0 .045-.02.074-.028.1h-.02a83.534 83.534 0 01-1.711 3.96 90.899 90.899 0 01-.822 1.733 68.34 68.34 0 01-4.199 7.617l.813.365c.565.264 2.237-2.05 4.143-5.535l.076-.138a8.545 8.545 0 01.91-1.717l.075-.15c.232-.45.463-.915.695-1.388a55.238 55.238 0 002.282-5.297l.01.008zm-6.67 11.657c-.048 0-.096-.105-.144-.162.054-.034.119-.107.161-.099.116.04.228.09.333.153a1.473 1.473 0 01-.361.1l.011.008zm2.49-4.652c-.078-1.133.1-2.022.125-.073-.008.008-.09.04-.136.065l.012.008zm.399-1.478c-.085-.11-.172-.17-.167-.224.017-.232.33-.062.41-.232l.121.05-.364.406zm-5.718-3.173a87.089 87.089 0 00-8.115-2.626l-1.226.61a87.138 87.138 0 019 2.849s.327-.839.33-.841l.01.008zm11.365.017c.48-1.34.644-2.266.353-2.4-.203-.098-.943-.509-1.146-.608a38.086 38.086 0 01-.828 2.204l1.621.804zm-11.122-.566c.124-.366.183-.61.183-.61a87.572 87.572 0 00-6.898-2.288l-.785.39c.011.02.022.04.031.06a88.19 88.19 0 017.457 2.445l.012.003zm8.056-7.227c.564-2.218.618-3.682 0-3.948a97.91 97.91 0 00-2.192-.873c.546.207.444 1.7-.135 3.93l2.327.891zm.338-2.793s.026.034.023.04c-.003.006-.048.04-.07.06-.023.02-.031-.035-.029-.037.003-.003.062-.04.088-.063h-.011zm-.26 1.856l.105.054a.416.416 0 01-.099.079c-.02 0-.056-.026-.084-.04l.079-.093zm1.624 4.793c.585-1.932.712-3.25.207-3.479l-1.023-.456a28.77 28.77 0 01-.914 3.198l1.73.737zM67.005 38.91l.48.181.22.094c.195.073 1.13-1.61 2.014-3.79.883-2.182 1.358-4.054 1.129-4.139l-.223-.088h-.02c0 .034-.02.065-.028.102a.698.698 0 01-.116-.062c0-.028.023-.057.031-.082l-.4-.156c.197.093-.283 1.949-1.15 4.127s-1.74 3.864-1.937 3.813zm2.414-4.02a.701.701 0 01.195.08c-.073.053-.121.11-.15.105a.566.566 0 01-.152-.1c.037-.03.073-.085.107-.085zm-49.31-2.923l-.847-.422a91.182 91.182 0 00-6.9 2.289s.061.243.183.609a87.846 87.846 0 017.564-2.476zm-1.335-.24l.226.232c-.08.05-.156.121-.175.113a.376.376 0 01-.178-.173c-.012-.048.079-.119.127-.173zM16.328 47.72c-.107.034-.226.113-.282.087a1.247 1.247 0 01-.333-.255s.037-.062.042-.059l.503.19c.024.011.05.02.076.028-.565-.566-1.463-2.025-2.51-4.056-.017-.034-.034-.068-.054-.102-.511-.541-.689-1.26-.971-1.958a149.1 149.1 0 01-2.598-5.762 79.67 79.67 0 01-.33-.79 1.864 1.864 0 01-.048-.11c-.684-.91-.684-2.167-1.28-3.246l-.076-.204a63.917 63.917 0 01-1.282-3.796.402.402 0 00-.533-.258l-.932.36a1.148 1.148 0 00-.675 1.416 71.428 71.428 0 002.985 7.538c.457 1.005.917 1.983 1.366 2.9h.178s.031.083.028.083l-.135.048c1.502 3.079 2.914 5.634 3.99 7.192.065 0 .118 0 .121.017a.57.57 0 01.02.184c.734 1.031 1.299 1.561 1.612 1.417.54-.224 1.079-.442 1.624-.655-.122.082-.294-.005-.506-.212v.003zm-6.212-11.107a1.578 1.578 0 01-.07-.165l.076-.045c.035.047.068.096.099.147-.035.022-.07.042-.107.06l.002.003zm.489 4.676c-.017 0-.034-.04-.048-.06.085 0 .17-.019.257-.022.022 0 .045.026.113.068-.147.006-.237.014-.325.012l.003.002zm3.933 4.034l-.147-.102c.04-.014.088-.05.119-.04a.61.61 0 01.136.094l-.108.048zM79.04 36.37a.684.684 0 00-.319-.875l-.655-.335a.442.442 0 00-.607.219 66.863 66.863 0 01-1.364 2.923 66.35 66.35 0 01-3.315 5.974c.175.085.887.485 1.062.567.455.223 2.16-2.329 3.885-5.686.506-.991.952-1.94 1.313-2.795v.008zm-.61-.963c.023 0 .026.05.037.076l-.079.043a1.734 1.734 0 01-.048-.102c.031-.014.07-.037.09-.014v-.003zm-4.015 7.03a3.117 3.117 0 01-.223-.249c.06-.02.15-.068.175-.048.091.08.174.17.249.267-.11.01-.181.04-.2.022v.009zm.667.244l-.085-.042.068-.1.062.069-.045.073zm1.35-3.306l-.179-.218c.057-.036.136-.113.161-.099.026.014.094.1.15.17-.06.06-.096.102-.133.148zm-70.785.406a.321.321 0 01-.025-.08c-.233-.453-.47-.92-.709-1.4a63.97 63.97 0 01-1.366-2.922.442.442 0 00-.605-.219l-.655.335a.685.685 0 00-.322.875c.125.283.26.592.398.9h.023-.014c.282.601.565 1.227.91 1.873l.152.283c.025.049.05.097.073.145.788 1.082 1.146 2.158 1.81 3.161.02.034.042.068.065.102.847 1.326 1.525 2.11 1.785 1.983.175-.085.886-.484 1.061-.566a62.186 62.186 0 01-2.566-4.502l-.015.032zm72.736-.406a33.88 33.88 0 01-.692 1.27c.632.324 1.26.658 1.886 1 .096.053.565-.423.96-1.134.068-.116-2.092-1.26-2.154-1.136zm-.08 1.085l-.056-.07a.467.467 0 01.082-.029s.028.029.022.037a.463.463 0 01-.048.057v.005zm1.237.496c-.022-.02-.056-.04-.062-.062-.006-.023.04-.037.062-.057l.06.063-.06.056zm1.429-1.847a98.479 98.479 0 00-1.946-1.028c-.087.19-.183.385-.282.584.714.377 1.422.755 2.126 1.133.13-.383.173-.658.102-.706v.017zm-80.506 1.4c.384.708.864 1.184.949 1.133.565-.312 1.14-.618 1.728-.918l.158-.082-.085-.15c-.2-.352-.402-.73-.607-1.133-.05-.108-2.21 1.036-2.143 1.15zm1.762.594l-.138-.082c-.026-.053-.085-.119-.068-.15s.104-.07.16-.105c.035.048.091.094.094.145a.621.621 0 01-.048.2v-.008zm32.717-31.095c.078-.048.15-.105.215-.17l.022-.014.455 1.252-.282.141-.41-1.21zM27.05 8.736l-.082-.105h-.006a.68.68 0 00-.121-.326c-.06-.102-.093-.17-.06-.249l.3.368v.017a.994.994 0 00-.031.284v.011zm2.46 5.512l-.283.142-4.267-4.368a.07.07 0 01-.017-.048.493.493 0 01.142-.06l4.424 4.335zm4.21-8.373c.005.009.025.031.025.051l.053.051.565 1.583-.076.032-.07.099a.21.21 0 01-.018.085l-.384-1.133h.017l.074-.15a.283.283 0 00-.198-.165l-.52-1.535a.086.086 0 01.051-.105h.029a.079.079 0 01.076.054l.212.586-.017.014-.031.023-.048.102a.365.365 0 00.152.258.37.37 0 01.107.125v.025zm-5.738 3.722a.615.615 0 00-.068.128.507.507 0 01-.028.079l-.565-.711.042.023h.113a.685.685 0 00.108-.094l.44.541-.042.034zm8.979-.051h.042a.164.164 0 01.054.003l.167.694-.34.176-.222-1.037a.45.45 0 01.194.13l.105.034zm-3.202 2.201l.05-.028a.467.467 0 00.128-.349l.223.454-.336.172-.116-.249h.05zm-4.366-4.051a.623.623 0 01-.05.08l-.029.045-.225-.368c.05.01.1.016.152.017h.065l.102.158c-.015.023-.015.046-.015.068zm.094 3.856a.653.653 0 00-.178.03l-.023-.008-.819-1.053.026-.02c.06-.017.082-.068.099-.122.017-.054.028-.068.065-.068l.183.227a.205.205 0 00.167.2l.917 1.134a.312.312 0 00-.065.266.174.174 0 00.125.133l.09-.014a.24.24 0 00.08-.105l.383.476v.031l.04.066c.03.03.054.066.073.104.016.03.035.059.056.085a.32.32 0 00.057.153v.02l.122-.014.078-.009a.045.045 0 01-.025.026h-.02a.044.044 0 01-.033-.016l.254.31-.34.176-1.287-1.654h.017a.328.328 0 00.141-.193v-.04l-.056-.09a.249.249 0 00-.127-.031zM36.51 7.24a.207.207 0 01-.085-.121.316.316 0 01.042-.054l.042.175zm-.707-2.708l.037.091h-.003a.265.265 0 00.054.045l.474 1.983h-.073a.699.699 0 00-.218.034L34.787.737a.086.086 0 01.062-.1c.011.003.025.009.025.04l.029.218.11.088.827 3.453a.145.145 0 00-.037.096zm-18.111 9.852a.06.06 0 01.034 0l4.735 2.233c.006.093.032.204.032.32l-4.835-2.4a.08.08 0 01-.047-.076.08.08 0 01.081-.077zm6.752.856l1.434.88-.263.145-1.31-.85a.388.388 0 01.09-.079l.049-.08v-.016zm-8.691 4.624a.082.082 0 01-.012-.06v.002a.082.082 0 01.07-.062l2.166.465-.282.147-1.892-.456a.082.082 0 01-.05-.036zM37.995 3.597a.076.076 0 01.03-.008v.003a.082.082 0 01.094.07l.72 5.754-.283.139-.065-.643.088-.142a.165.165 0 00-.113-.113l-.511-4.98a.076.076 0 01.04-.08zM23.571 17.274a.119.119 0 010 .088.122.122 0 01-.141.036.187.187 0 01-.13-.085c-.023-.045.025-.067-.07-.093-.097-.025-.195 0-.283-.025a.135.135 0 01-.102-.097.182.182 0 01.026-.102.182.182 0 01.028-.04.124.124 0 01.175-.022c.065.054.172.133.2.156.029.022.057.07.088.085a.95.95 0 00.13.02.113.113 0 01.08.079z" fill="#fff"/><path d="M23.204 17.282l-.085-.042.054-.006a.46.46 0 00.031.048zm-.275-2.827a.161.161 0 01.032-.073.238.238 0 01.026-.04l.282.17v.238l-.333-.215a.161.161 0 01-.007-.08zm-3.121 3.723a.079.079 0 01.047-.015l.026-.008 1.242.422-.229.119-1.067-.374a.085.085 0 01-.048-.105.08.08 0 01.03-.04zm11.3-12c.073-.037.143-.08.209-.13l1.77 3.592a.541.541 0 01-.215.102 2.766 2.766 0 00-.163-.23 1.83 1.83 0 01-.11-.147l-1.491-3.187zm1.99 4.002h.116c.045.005.09.005.136-.002l.16.326a.182.182 0 00-.056.03l-.037.052a.32.32 0 00.017.22c.019.049.03.1.034.15-.006.012-.02.024-.05.043l-.043.031-.401-.85a.889.889 0 01.124 0zm-10.778.902a.053.053 0 01.031 0l-1.677-1.357a.082.082 0 010-.114.077.077 0 01.062-.03.08.08 0 01.051.016l2.493 1.952h-.017l-.045.139.014.028c.014.051.017.065 0 .088l-.776-.635c.008.009.014.02.017.031l-.153-.118zm8.723-.437h.017a.302.302 0 00.214-.119l1.35 2.1-.283.141-1.298-2.122zm-6.015 2.453l.13.097.006-.014a.138.138 0 00.09-.071l2.564 2.008-.339.176-3.106-2.55a.4.4 0 01.02-.062.45.45 0 01.135.054.417.417 0 00.21.068h.056l.053-.014.198.164a.284.284 0 00-.017.144zm26.927.675l.392-.383.034-.062v.014l.076-.074.06.114c.038.014.08.022.121.022.02.003.042.003.062 0l-.946.972-.07-.037a.614.614 0 00.254-.484l.017-.082zm4.681-1.278c-.017.048-.017.094-.017.136l-.065.008a1.165 1.165 0 01-.364.108l.446-.345v.093zm-.284-6.869a.085.085 0 01-.015.06l-1.27 1.63a.468.468 0 00-.167-.12l1.31-1.613a.081.081 0 01.062-.028c.019 0 .037.005.05.017a.085.085 0 01.03.054zm-3.189 9.501l1.723-1.349.008-.014a.158.158 0 01.02.082.668.668 0 00.07.235l-1.346 1.102-.054-.054h-.119a.232.232 0 00-.169.066l-.133-.068zm2.271-4.777l.03.029.009-.017a.808.808 0 01.09.113l-.929.952-.042-.04h-.073a.409.409 0 00-.13.026h-.034l1.079-1.062zm-1.638 1.72a.372.372 0 01-.074.054l.009-.017a.283.283 0 00-.167.286l.028.07.02.02-.79.814a.396.396 0 00-.032-.13l-.104-.063h-.042l1.437-1.416a.563.563 0 00.248.05l-.336.344a.34.34 0 01-.07-.029l-.127.017zm1.787 4.017l-.09.06c-.04-.02-.054-.035-.043-.069a.07.07 0 010-.056.209.209 0 01.144-.043h.015a.32.32 0 00-.026.108zm-1.934-6.94l-3.45 4.419-.34-.167 3.293-4.065h.048a.84.84 0 01.102-.048l-.017-.207c.01.003.02.01.025.02a.04.04 0 010 .05l.915-1.104.05.014c.047.006.092.02.133.043a.169.169 0 01.04.03l-.265.338a.183.183 0 00-.147.073v.122l-.263.337H53.7l-.014.218a.05.05 0 01-.037-.03.06.06 0 010-.043zM65.223 19.75a.086.086 0 01.034.048v.008a.082.082 0 01-.056.088l-1.892.456-.283-.147 2.14-.468c.02-.002.04.003.057.015zm-5.67-9.396l-2.58 2.11c.014-.113.016-.224-.06-.283l2.299-1.788h.084a.23.23 0 00.085-.06c.031-.045.048-.045.076-.045h.029c.026.018.049.04.067.066zm1.559 7.776h.028a.081.081 0 01.076.05.086.086 0 01-.05.105l-1.093.397-.232-.12 1.27-.433zm-1.104-1.944h-.09a.338.338 0 00-.114.096l-2.239 1.108-.336-.173 4.563-2.147h-.017a.043.043 0 01-.025 0l.17-.085a.062.062 0 01-.034.043l1.372-.644h.034a.08.08 0 01.073.046.08.08 0 01-.037.107l-3.32 1.649zm-2.33-1.674l1.288-.796a.08.08 0 01.042-.026.085.085 0 01.07.037.082.082 0 01-.025.11l-.88.567h-.068a.215.215 0 00-.175.102c-.04.043-.065.068-.113.068h-.034a.405.405 0 01-.105-.062zm-35.132-.468l-.02.013.175.107a.226.226 0 00-.059.184l-.703-.454a.082.082 0 01-.003-.133.082.082 0 01.048-.017.094.094 0 01.04 0l.367.235a.04.04 0 01-.014-.042l.17.107zm8.584-8.359a1.387 1.387 0 00-.3-.085l-1.388-2.988a.082.082 0 01.04-.108.076.076 0 01.033 0 .082.082 0 01.073.045l1.542 3.136zm16.654-.901l-2.16 6.422-.26-.139 2.279-6.334a.079.079 0 01.076-.053h.014a.08.08 0 01.048.041.084.084 0 01.003.063zM30.712 9.651l-.053.02h-.006a.513.513 0 00-.08.173l-.13-.216a.563.563 0 01.128 0c.047-.002.094-.002.141 0v.023zm6.071-.691a.304.304 0 01-.042-.105l.045.006h.056l.048-.031.031.13c-.01.025-.022.045-.042.045a.065.065 0 01-.031 0c-.008 0-.037 0-.065-.045zM40.441.024A.082.082 0 0140.5 0a.085.085 0 01.082.08l.096 8.625a1.222 1.222 0 00-.172-.017 1.18 1.18 0 00-.172.017v-.61l.132-.033a.26.26 0 00-.02-.127l-.11-.054.023-2.04a.16.16 0 00.079.017l.11-.082a.177.177 0 00-.017-.142.186.186 0 00-.166-.093l.014-1.496a.187.187 0 000-.193l.04-3.77c0-.022.008-.043.023-.058zm5.186 3.194l.03.068-1.552 7.138-.339-.175.107-.354.085-.162-.04-.025 1.011-4.25a.16.16 0 00.051 0l.1-.053a.31.31 0 00.027-.235.207.207 0 00-.082-.125l.531-2.224a.282.282 0 01.08-.06l.061-.07-.087-.096v-.046l.135.066.04-.023.034-.043-.107.493a.355.355 0 00-.085.176zm-2.762.388a.082.082 0 01.054-.02.084.084 0 01.09.058.085.085 0 01.003.039l-.582 5.863-.282-.141.69-5.748a.082.082 0 01.027-.05zM30.32 9.186c-.062-.022-.108-.04-.108-.082h.023c.012-.03.025-.06.04-.09l.14.22a.306.306 0 00-.095-.048zm21.846-2.257l-.587.963-.189-.02.641-1.02a.079.079 0 01.068-.037.104.104 0 01.042 0 .079.079 0 01.037.052.08.08 0 01-.011.062zm-.612-4.297l-4.38 9.376-.336-.173 4.572-9.274a.076.076 0 01.07-.046.082.082 0 01.074.117zm-3.197 9.979L50.9 8.645h.025c.057.03.117.054.178.074l-2.462 4.034-.283-.142zm-6.133 29.647l-.076-.617.271-.142.065.651a.504.504 0 00-.045.057l-.08.068a.371.371 0 00-.135-.017zm-3.659.014l-.088-.141.054-.635.282.139-.087.7c-.006.017-.023.017-.023.017a.447.447 0 01-.192 0 .179.179 0 00.054-.08zm-7.489-1.875h-.017l1.29-2.127.283.141-1.35 2.102a.283.283 0 00-.206-.116zm2.358-.144a.32.32 0 00-.017.22l.034.049a.18.18 0 00.057.03l-.161.327a.527.527 0 00-.125 0h-.124a.889.889 0 01-.124 0l.4-.85.043.031c.031.02.051.042.051.042a.534.534 0 01-.034.15zm-9.03-1.893a.403.403 0 01-.02-.062l3.104-2.544.338.176-2.564 2.008a.14.14 0 00-.098-.076l-.13.096a.284.284 0 00.017.145l-.192.15-.054-.014h-.056a.416.416 0 00-.21.068.4.4 0 01-.135.053zm4.812-1.7l.282.14-.647.614a.476.476 0 00-.16-.056c-.012-.046-.04-.091-.04-.13l.565-.567zm-1.506 1.748a.296.296 0 00.094 0l-.003.012v.042l-.816.802a.195.195 0 01-.054-.017.061.061 0 010-.023 1.611 1.611 0 01-.048-.167l.698-.71.059.033.07.028zm19.733 1.417c-.076-.004-.152 0-.226.011h-.088l-.305-.62.336-.176.283.606a.625.625 0 010 .178h.008-.008zM24.44 35.808v-.017l-.05-.073a.387.387 0 01-.09-.08l1.31-.85.265.14-1.434.88z" fill="#fff"/></svg>