<svg width="95" height="112" fill="none" xmlns="http://www.w3.org/2000/svg"><path d="M89.58 56.54c2.886-2.825 4.63-6.681 4.876-10.788.247-4.108-1.02-8.159-3.546-11.333L67.36 7.705a11.03 11.03 0 00-3.847-5.565A10.389 10.389 0 0057.24 0H45.46C42.287.006 39.245 1.314 37 3.64l-2.51 2.582a8.81 8.81 0 00-1.844 2.854 9.068 9.068 0 000 6.737 8.811 8.811 0 001.844 2.854l2 2.074c1.592 1.649 3.75 2.575 6 2.575s4.408-.926 6-2.575l8 4.148v29.037H45.43c-1.95 0-3.879.411-5.671 1.206A14.442 14.442 0 0035 58.552c-4.238-3.107-9.322-4.728-14.51-4.626-8 0-14.8 3.391-18 8.296V112c9.13 0 17.17-2.074 22.63-6.222h12.42a14.116 14.116 0 007.639-2.229 14.84 14.84 0 005.361-6.068c9.63 0 19.75-8.659 23.42-17.536a11.658 11.658 0 007.56.56 11.898 11.898 0 005.45-3.2 12.553 12.553 0 003.153-5.613 12.89 12.89 0 00-.004-6.495 12.554 12.554 0 00-3.159-5.609 31.875 31.875 0 012.62-3.049z" fill="red"/><path d="M20.49 31.111c1.105 0 2-.928 2-2.074 0-1.145-.895-2.074-2-2.074s-2 .928-2 2.074.895 2.074 2 2.074zm0 12.445c-.53 0-1.04-.219-1.414-.608a2.114 2.114 0 01-.586-1.467v-4.148c0-.55.21-1.077.586-1.466a1.964 1.964 0 011.414-.608c.53 0 1.04.219 1.414.608.375.389.586.916.586 1.466v4.148c0 .55-.21 1.078-.586 1.467a1.964 1.964 0 01-1.414.608zm18.48-6.731c1.105 0 2-.928 2-2.074 0-1.145-.895-2.074-2-2.074s-2 .929-2 2.074c0 1.146.895 2.074 2 2.074zm-8.48 8.805c-.395 0-.781-.121-1.11-.348a2.059 2.059 0 01-.738-.93 2.146 2.146 0 01-.116-1.196 2.1 2.1 0 01.544-1.063l2.83-2.935c.186-.192.407-.345.65-.45a1.94 1.94 0 011.53 0c.244.105.464.258.65.45.186.193.333.422.434.674a2.141 2.141 0 01-.434 2.261l-2.83 2.925c-.373.39-.88.61-1.41.612zM2 36.825c1.105 0 2-.928 2-2.074 0-1.145-.895-2.074-2-2.074s-2 .929-2 2.074c0 1.146.895 2.074 2 2.074zm8.49 8.805c-.264 0-.525-.054-.769-.16a1.997 1.997 0 01-.651-.452l-2.83-2.925a2.115 2.115 0 01-.586-1.467c0-.55.21-1.078.586-1.468a1.965 1.965 0 011.415-.607c.53 0 1.04.218 1.415.607l2.83 2.935a2.1 2.1 0 01.544 1.06c.076.401.036.817-.114 1.195a2.06 2.06 0 01-.733.93 1.95 1.95 0 01-1.107.352z" fill="red"/></svg>