<svg width="112" height="112" fill="none" xmlns="http://www.w3.org/2000/svg"><path d="M92 50.91a1.97 1.97 0 01-1.45-.632l-30.5-34.842a2.075 2.075 0 01-.54-1.472 2.07 2.07 0 01.64-1.43c.391-.372.911-.57 1.446-.55a2 2 0 011.404.652l30.5 34.832a2.07 2.07 0 01.381 2.232 2.02 2.02 0 01-.76.895A1.973 1.973 0 0192 50.91zm-72 0a1.98 1.98 0 01-1.102-.336 2.027 2.027 0 01-.738-.898 2.07 2.07 0 01.39-2.208l30.5-34.832a1.987 1.987 0 012.85-.102 2.083 2.083 0 01.1 2.902L21.45 50.278a1.97 1.97 0 01-1.45.631z" fill="red"/><path d="M56 0a7.899 7.899 0 00-4.445 1.373 8.116 8.116 0 00-2.946 3.655 8.283 8.283 0 00-.455 4.707 8.192 8.192 0 002.19 4.17 7.957 7.957 0 004.095 2.23 7.867 7.867 0 004.623-.464 8.033 8.033 0 003.59-3A8.251 8.251 0 0064 8.145c0-2.16-.843-4.232-2.343-5.76A7.928 7.928 0 0056 0zm0 10.182a1.98 1.98 0 01-1.111-.343 2.03 2.03 0 01-.737-.914 2.072 2.072 0 01-.114-1.177c.078-.395.268-.758.548-1.042a1.967 1.967 0 012.18-.441c.365.153.677.414.897.75a2.063 2.063 0 01-.249 2.57 1.982 1.982 0 01-1.414.597zM0 46.836V112h112V46.836H0zm8 8.146c.396 0 .782.12 1.111.343.329.224.585.542.737.914.151.372.19.781.114 1.177a2.048 2.048 0 01-.548 1.042 1.99 1.99 0 01-1.024.557c-.388.079-.79.039-1.155-.115a2.008 2.008 0 01-.898-.75 2.063 2.063 0 01.249-2.572A1.982 1.982 0 018 54.982zm0 48.873c-.396 0-.782-.12-1.111-.344a2.02 2.02 0 01-.737-.914 2.069 2.069 0 01.434-2.219 1.968 1.968 0 012.18-.441c.365.154.677.415.897.75a2.061 2.061 0 01-.249 2.571 1.982 1.982 0 01-1.414.597zm7-26.473c1.384 0 2.738.418 3.889 1.201a7.102 7.102 0 012.578 3.199 7.248 7.248 0 01.399 4.118 7.168 7.168 0 01-1.916 3.649 6.962 6.962 0 01-3.584 1.95 6.884 6.884 0 01-4.045-.405 7.028 7.028 0 01-3.141-2.625A7.22 7.22 0 018 84.509c0-.54.21-1.058.586-1.44A1.982 1.982 0 0110 82.473c.53 0 1.04.214 1.414.596.375.382.586.9.586 1.44 0 .604.176 1.195.506 1.697s.798.894 1.346 1.125a2.95 2.95 0 001.733.174 2.983 2.983 0 001.536-.836 3.06 3.06 0 00.821-1.564 3.106 3.106 0 00-.17-1.765 3.043 3.043 0 00-1.105-1.37A2.962 2.962 0 0015 81.453a6.912 6.912 0 01-3.889-1.2 7.102 7.102 0 01-2.578-3.2 7.248 7.248 0 01-.399-4.117 7.168 7.168 0 011.916-3.65 6.962 6.962 0 013.584-1.95 6.884 6.884 0 014.045.406 7.03 7.03 0 013.141 2.625 7.22 7.22 0 011.18 3.96c0 .54-.21 1.057-.586 1.44a1.982 1.982 0 01-1.414.596 1.98 1.98 0 01-1.414-.597 2.055 2.055 0 01-.586-1.44c0-.604-.176-1.194-.506-1.697a3.012 3.012 0 00-1.346-1.125 2.952 2.952 0 00-1.733-.174 2.984 2.984 0 00-1.536.836c-.42.428-.706.972-.821 1.564a3.106 3.106 0 00.17 1.765 3.042 3.042 0 001.105 1.371 2.962 2.962 0 001.667.515zM42 89.6c0 .54-.21 1.058-.586 1.44a1.982 1.982 0 01-1.414.596 1.98 1.98 0 01-1.414-.596A2.055 2.055 0 0138 89.6v-6.11h-6v6.11c0 .54-.21 1.058-.586 1.44a1.982 1.982 0 01-1.414.596 1.98 1.98 0 01-1.414-.596A2.055 2.055 0 0128 89.6V74.327c0-1.89.738-3.703 2.05-5.04A6.937 6.937 0 0135 67.2c1.856 0 3.637.75 4.95 2.087a7.194 7.194 0 012.05 5.04V89.6zm20-5.09c0 1.89-.737 3.702-2.05 5.039A6.937 6.937 0 0155 91.636a6.937 6.937 0 01-4.95-2.087 7.193 7.193 0 01-2.05-5.04V69.236c0-.54.21-1.058.586-1.44A1.982 1.982 0 0150 67.2c.53 0 1.04.215 1.414.596.375.382.586.9.586 1.44V84.51c0 .81.316 1.587.879 2.16a2.973 2.973 0 002.121.895 2.97 2.97 0 002.121-.895c.563-.573.879-1.35.879-2.16V69.236c0-.54.21-1.058.586-1.44A1.982 1.982 0 0160 67.2c.53 0 1.04.215 1.414.596.375.382.586.9.586 1.44V84.51zm20 5.09a2.06 2.06 0 01-.415 1.297 2 2 0 01-1.125.74 2.357 2.357 0 01-.46 0c-.372 0-.737-.107-1.053-.306a2.023 2.023 0 01-.737-.825L72 77.86V89.6c0 .54-.21 1.058-.586 1.44a1.982 1.982 0 01-1.414.596 1.98 1.98 0 01-1.414-.596A2.055 2.055 0 0168 89.6V69.236c0-.458.153-.904.433-1.263.28-.36.671-.612 1.11-.717a1.96 1.96 0 011.307.14c.408.194.739.524.94.934L78 80.976v-11.74c0-.54.21-1.058.586-1.44A1.982 1.982 0 0180 67.2c.53 0 1.04.215 1.414.596.375.382.586.9.586 1.44V89.6zm18 2.036a1.98 1.98 0 01-1.414-.596A2.055 2.055 0 0198 89.6v-6.11h-6v6.11c0 .54-.21 1.058-.586 1.44a1.982 1.982 0 01-1.414.596 1.98 1.98 0 01-1.414-.596A2.055 2.055 0 0188 89.6V74.327c0-1.89.737-3.703 2.05-5.04A6.937 6.937 0 0195 67.2c1.856 0 3.637.75 4.95 2.087a7.196 7.196 0 012.05 5.04V89.6c0 .54-.211 1.058-.586 1.44a1.982 1.982 0 01-1.414.596zm4 12.219c-.396 0-.782-.12-1.111-.344a2.025 2.025 0 01-.737-.914 2.055 2.055 0 01.434-2.219 1.985 1.985 0 011.024-.557c.388-.079.79-.038 1.155.116.366.154.678.415.898.75a2.06 2.06 0 01-.249 2.571 1.982 1.982 0 01-1.414.597zm0-44.8c-.396 0-.782-.12-1.111-.344a2.033 2.033 0 01-.737-.913 2.076 2.076 0 01-.114-1.177c.078-.395.268-.758.548-1.043a1.986 1.986 0 011.024-.557c.388-.079.79-.038 1.155.116.366.154.678.415.898.75a2.06 2.06 0 01-.249 2.571 1.982 1.982 0 01-1.414.596z" fill="red"/><path d="M35 73.31c-.796 0-1.559.32-2.121.894a3.083 3.083 0 00-.879 2.16v3.054h6v-3.054c0-.81-.316-1.587-.879-2.16A2.973 2.973 0 0035 73.309zm60 0c-.796 0-1.559.32-2.121.894a3.083 3.083 0 00-.879 2.16v3.054h6v-3.054c0-.81-.316-1.587-.879-2.16A2.973 2.973 0 0095 73.309z" fill="red"/></svg>