<svg width="120" height="112" fill="none" xmlns="http://www.w3.org/2000/svg"><path d="M78 112H42a3.997 3.997 0 01-4-4V4a4 4 0 118 0v100h28V4a4 4 0 118 0v104a3.998 3.998 0 01-4 4z" fill="#FF0600"/><path d="M88 112H32a8 8 0 018-8h40a8.001 8.001 0 018 8zM30 24a4 4 0 01-4-4V8a4 4 0 118 0v12a4 4 0 01-4 4zm60 0a4 4 0 01-4-4V8a4 4 0 118 0v12a4 4 0 01-4 4zm10-14h-4v8h4v-8zm-76 0h-4v8h4v-8zm60 0H36v8h48v-8zm12 30H24v8h72v-8zm16 14a3.998 3.998 0 01-4-4V38a3.997 3.997 0 014-4 3.998 3.998 0 014 4v12a3.997 3.997 0 01-4 4zm-10 4a4 4 0 01-4-4V34a4 4 0 118 0v20a3.997 3.997 0 01-4 4zM8 54a4 4 0 004-4V38a4 4 0 10-8 0v12a4 4 0 004 4zm10 4a4 4 0 004-4V34a4 4 0 10-8 0v20a4 4 0 004 4zm72 22H30v8h60v-8zm26 14a3.998 3.998 0 01-4-4V78a3.997 3.997 0 014-4 3.998 3.998 0 014 4v12a3.997 3.997 0 01-4 4zm-10 4a3.998 3.998 0 01-4-4V74a3.997 3.997 0 014-4 3.998 3.998 0 014 4v20a3.997 3.997 0 01-4 4zm-10 4a3.997 3.997 0 01-4-4V70a4 4 0 118 0v28a3.998 3.998 0 01-4 4zM4 94a4 4 0 004-4V78a4 4 0 10-8 0v12a4 4 0 004 4zm10 4a4 4 0 004-4V74a4 4 0 10-8 0v20a4 4 0 004 4zm10 4a3.997 3.997 0 004-4V70a4 4 0 10-8 0v28a3.998 3.998 0 004 4z" fill="#FF0600"/></svg>