<svg width="33" height="27" fill="none" xmlns="http://www.w3.org/2000/svg"><path d="M32.133 3.187a.157.157 0 00-.187-.044c-.962.435-1.974.748-3.016.933A6.828 6.828 0 0031.284.701a.165.165 0 00-.052-.178.158.158 0 00-.182-.012 12.74 12.74 0 01-4.013 1.581A6.658 6.658 0 0022.212 0c-3.692 0-6.695 3.066-6.695 6.835 0 .455.043.907.13 1.345C10.532 7.858 5.751 5.352 2.5 1.281a.155.155 0 00-.136-.06.16.16 0 00-.126.08 6.94 6.94 0 00-.906 3.437c0 2.096.932 4.055 2.52 5.348a6.307 6.307 0 01-2.336-.771.156.156 0 00-.157 0 .164.164 0 00-.08.139v.087c0 3.01 1.942 5.652 4.705 6.53a6.302 6.302 0 01-2.225-.034.16.16 0 00-.15.052.166.166 0 00-.033.158c.83 2.64 3.132 4.492 5.812 4.723a12.691 12.691 0 01-7.67 2.553 12.97 12.97 0 01-1.54-.092.162.162 0 00-.17.107.165.165 0 00.065.192 18.402 18.402 0 0010.103 3.024c11.738 0 18.753-9.735 18.753-19.146 0-.262-.005-.523-.015-.783a13.514 13.514 0 003.23-3.443.166.166 0 00-.012-.195z" fill="#fff" fill-opacity=".5"/></svg>