<svg width="41" height="27" fill="none" xmlns="http://www.w3.org/2000/svg"><path d="M38.466 21.671c-1.195-1.688-2.601-3.13-3.931-4.66-1.2-1.378-1.276-2.178-.311-3.77 1.053-1.737 2.185-3.408 3.248-5.137.991-1.617 2.005-3.228 2.527-5.164.331-1.23.038-1.774-1.033-1.99a2.816 2.816 0 00-.564-.04L32.044.901c-.783-.013-1.216.389-1.493 1.207-.374 1.105-.76 2.21-1.205 3.276-1.01 2.418-2.139 4.755-3.721 6.735-.349.436-.735.988-1.318.76-.73-.313-.944-1.729-.932-2.208l-.007-8.645C23.227.79 22.995.24 21.954 0l-6.605.001c-.882 0-1.324.402-1.794 1.051-.272.376-.354.62.204.744 1.096.245 1.714 1.08 1.878 2.375.263 2.07.244 4.146.093 6.224-.045.606-.133 1.211-.337 1.777-.32.89-.835 1.072-1.513.524-.613-.496-1.044-1.195-1.466-1.898-1.584-2.636-2.848-5.48-3.878-8.468-.298-.863-.811-1.386-1.588-1.4a137.576 137.576 0 00-5.723 0C.077.957-.265 1.613.202 2.84c2.078 5.445 4.39 10.738 7.41 15.56 1.55 2.474 3.329 4.659 5.628 6.207 2.605 1.754 5.41 2.283 8.364 2.12 1.383-.076 1.798-.5 1.862-2.124.043-1.111.15-2.216.616-3.215.456-.98 1.148-1.166 1.945-.557.399.306.735.694 1.052 1.104.779 1.003 1.53 2.037 2.337 3.006 1.014 1.215 2.214 1.933 3.724 1.787h5.844c.941-.072 1.43-1.432.889-2.67-.38-.867-.878-1.639-1.407-2.386z" fill="#fff" fill-opacity=".5"/></svg>